# xmcd CD database file
#
# Track frame offsets:
#	150
#	12866
#	23769
#	36969
#	53586
#	67844
#	79596
#	92838
#	99581
#	112168
#	129678
#	139787
#	154695
#	167650
#
# Disc length: 2514 seconds
#
# Revision: 0
# Processed by: cddbd v1.5.2PL0 Copyright (c) Steve Scherf et al.
# Submitted via: CDex 2.23
#
DISCID=ad09d00e
DTITLE=New Colorado - live in Europe
DYEAR=1900
DGENRE=Country
TTITLE0=BIG BAYOU
TTITLE1=ROAD OF LIFE
TTITLE2=GOOD TO SEE YOU
TTITLE3=BOTTLE LET ME DOWN
TTITLE4=NEW MOON NIGHT
TTITLE5=ALL YOUR BEAUTY
TTITLE6=ROSE OF MY HEART
TTITLE7=JIGS and REELS
TTITLE8=THERE GOES MY EVERYTHING
TTITLE9=LOVE NEVER BROKE ANYONES'S HEART
TTITLE10=YESTERDAY MAN
TTITLE11=FRIENDS
TTITLE12=THE SHAPE I'M IN
TTITLE13=IRISH MEDLEY
EXTD=
EXTT0=
EXTT1=
EXTT2=
EXTT3=
EXTT4=
EXTT5=
EXTT6=
EXTT7=
EXTT8=
EXTT9=
EXTT10=
EXTT11=
EXTT12=
EXTT13=
PLAYORDER=
